<?xml version="1.0" encoding="utf-8"?>
<!DOCTYPE svg PUBLIC "-//W3C//DTD SVG 1.1//EN" "http://www.w3.org/Graphics/SVG/1.1/DTD/svg11.dtd">
<svg version="1.1" id="Layer_1" xmlns="http://www.w3.org/2000/svg" xmlns:xlink="http://www.w3.org/1999/xlink" x="0px" y="0px"
	 width="212px" height="212px" viewBox="0 0 212 212" enable-background="new 0 0 212 212" xml:space="preserve">
<path fill-rule="evenodd" clip-rule="evenodd" fill="#DFE5E7" d="M105.946,0.25C164.318,0.25,211.64,47.596,211.64,106
	c0,58.404-47.322,105.75-105.695,105.75C47.571,211.75,0.25,164.404,0.25,106C0.25,47.596,47.571,0.25,105.946,0.25z"/>
<g>
	<g>
		<path fill="#FFFFFF" d="M61.543,100.988c8.073,0,14.246-6.174,14.246-14.246s-6.173-14.246-14.246-14.246
			s-14.246,6.173-14.246,14.246S53.471,100.988,61.543,100.988z M69.702,118.529c2.24-1.998,5.077-4.122,8.545-6.062
			c-4.174-2.217-9.641-3.859-16.704-3.859c-21.844,0-28.492,15.67-28.492,15.67v8.073h26.181l0.105-0.248
			C59.64,131.39,62.501,124.952,69.702,118.529z M150.457,108.608c-6.854,0-12.21,1.543-16.336,3.661
			c3.633,1.993,6.587,4.194,8.903,6.26c7.201,6.422,10.061,12.861,10.364,13.574l0.105,0.248h25.456v-8.073
			C178.948,124.278,172.3,108.608,150.457,108.608z M150.457,100.988c8.073,0,14.246-6.174,14.246-14.246
			s-6.173-14.246-14.246-14.246s-14.246,6.173-14.246,14.246S142.384,100.988,150.457,100.988z M106.364,104.198
			c1.537,0,3.029-0.147,4.464-0.428c0.717-0.14,1.419-0.315,2.106-0.521c1.03-0.309,2.023-0.69,2.976-1.138
			c1.269-0.597,2.465-1.312,3.574-2.133c1.664-1.231,3.133-2.701,4.364-4.364c0.41-0.554,0.795-1.13,1.151-1.727
			c0.534-0.894,1.005-1.834,1.408-2.813c0.268-0.653,0.506-1.323,0.713-2.01c0.103-0.343,0.198-0.69,0.285-1.042
			c0.174-0.702,0.315-1.42,0.421-2.151c0.16-1.097,0.242-2.224,0.242-3.377c0-1.153-0.083-2.281-0.242-3.377
			c-0.107-0.731-0.248-1.449-0.421-2.151c-0.087-0.351-0.182-0.698-0.285-1.042c-0.206-0.686-0.445-1.357-0.713-2.01
			c-0.403-0.979-0.874-1.919-1.408-2.813c-0.356-0.596-0.74-1.172-1.151-1.727c-1.231-1.664-2.7-3.133-4.364-4.364
			c-1.109-0.821-2.305-1.536-3.574-2.133c-0.952-0.448-1.946-0.829-2.976-1.138c-0.687-0.206-1.389-0.38-2.106-0.521
			c-1.434-0.281-2.927-0.428-4.464-0.428c-12.299,0-21.705,9.405-21.705,21.704C84.659,94.793,94.065,104.198,106.364,104.198z
			 M145.629,131c-0.349-0.532-0.748-1.108-1.2-1.718c-0.452-0.609-0.956-1.252-1.516-1.917c-0.56-0.665-1.176-1.352-1.851-2.05
			c-1.012-1.047-2.156-2.119-3.442-3.179c-1.716-1.413-3.685-2.804-5.931-4.083c-1.091-0.622-2.251-1.216-3.476-1.776
			c-0.036-0.016-0.069-0.034-0.104-0.05c-5.692-2.581-12.849-4.376-21.746-4.376c-8.898,0-16.055,1.795-21.746,4.376
			c-0.196,0.089-0.379,0.185-0.572,0.276c-0.832,0.392-1.631,0.799-2.399,1.221c-0.416,0.228-0.823,0.46-1.221,0.696
			c-1.988,1.178-3.763,2.436-5.318,3.716c-1.286,1.06-2.431,2.132-3.443,3.179c-0.674,0.698-1.29,1.385-1.85,2.05
			c-0.56,0.665-1.065,1.308-1.516,1.917c-0.452,0.61-0.851,1.186-1.2,1.718c-0.324,0.493-0.6,0.943-0.841,1.351
			c-0.019,0.032-0.042,0.069-0.061,0.101c-0.253,0.432-0.459,0.809-0.622,1.119c-0.325,0.621-0.475,0.975-0.475,0.975v11.692h82.53
			v-11.692c0,0-0.36-0.842-1.158-2.195C146.229,131.943,145.952,131.493,145.629,131z"/>
	</g>
</g>
</svg>
